# xmcd
#
# Track frame offsets:
#	150
#	17292
#	33493
#	54647
#	70698
#	90273
#	108877
#	122586
#	140209
#	155252
#	181812
#
# Disc length: 2835 seconds
#
# Revision: 1
# Processed by: cddbd v1.5.2PL0 Copyright (c) Steve Scherf et al.
# Submitted via: audiograbber 1.83.01
#
DISCID=810b110b
DTITLE=Various Artist - ASK-1008
DYEAR=2006
DGENRE=Karaoke
TTITLE0=Chris Cagle - Wal-Mart Parking Lot
TTITLE1=Danielle Peck - I Don't
TTITLE2=Garth Brooks and Trisha Yearwood - Love Will Always Win
TTITLE3=Gary Allen - Life Ain't Always Beautiful
TTITLE4=George Straight - The Seashores Of Old Mexico
TTITLE5=Little Big Town - Bring It On Home
TTITLE6=Mirianda Lambert - Kerosene
TTITLE7=Toby Keith - As Good As I Once Was
TTITLE8=Trent Tomlinson - Drunker Than Me
TTITLE9=Van Zant - Nobody Gonna Tell Me What To Do
TTITLE10=data - Data Track
EXTD=
EXTT0=
EXTT1=
EXTT2=
EXTT3=
EXTT4=
EXTT5=
EXTT6=
EXTT7=
EXTT8=
EXTT9=
EXTT10=
PLAYORDER=
